HIERARCHY
ROOT Hips
{
	OFFSET 0.000000 0.000000 0.000000 
	CHANNELS 6 Xposition Yposition Zposition Zrotation Yrotation Xrotation
	JOINT LeftUpLeg
	{
		OFFSET 1.363060 -1.794630 0.839290 
		CHANNELS 3 Zrotation Yrotation Xrotation
		JOINT LeftLeg
		{
			OFFSET 2.448110 -6.726130 0.000000 
			CHANNELS 3 Zrotation Yrotation Xrotation
			JOINT LeftFoot
			{
				OFFSET 2.562200 -7.039590 0.000000 
				CHANNELS 3 Zrotation Yrotation Xrotation
				JOINT LeftToeBase
				{
					OFFSET 0.157640 -0.433110 2.322550 
					CHANNELS 3 Zrotation Yrotation Xrotation
					End Site
					{
						OFFSET 0.000000 0.000000 0.000000 
					}
				}
			}
		}
	}
	JOINT RightUpLeg
	{
		OFFSET -1.305520 -1.794630 0.839290 
		CHANNELS 3 Zrotation Yrotation Xrotation
		JOINT RightLeg
		{
			OFFSET -2.542530 -6.985550 0.000000 
			CHANNELS 3 Zrotation Yrotation Xrotation
			JOINT RightFoot
			{
				OFFSET -2.568260 -7.056230 0.000000 
				CHANNELS 3 Zrotation Yrotation Xrotation
				JOINT RightToeBase
				{
					OFFSET -0.164730 -0.452590 2.363150 
					CHANNELS 3 Zrotation Yrotation Xrotation
					End Site
					{
						OFFSET 0.000000 0.000000 0.000000 
					}
				}
			}
		}
	}
	JOINT Spine
	{
		OFFSET 0.028270 2.035590 -0.193380 
		CHANNELS 3 Zrotation Yrotation Xrotation
		JOINT Spine1
		{
			OFFSET 0.056720 2.048850 -0.042750 
			CHANNELS 3 Zrotation Yrotation Xrotation
			JOINT Neck1
			{
				OFFSET -0.054170 1.746240 0.172020 
				CHANNELS 3 Zrotation Yrotation Xrotation
				JOINT Head
				{
					OFFSET 0.104070 1.761360 -0.123970 
					CHANNELS 3 Zrotation Yrotation Xrotation
					End Site
					{
						OFFSET 0.000000 0.000000 0.000000 
					}
				}
			}
			JOINT LeftArm
			{
				OFFSET 3.362410 1.200890 -0.311210 
				CHANNELS 3 Zrotation Yrotation Xrotation
				JOINT LeftForeArm
				{
					OFFSET 4.983000 -0.000000 -0.000000 
					CHANNELS 3 Zrotation Yrotation Xrotation
					JOINT LeftHand
					{
						OFFSET 3.483560 -0.000000 -0.000000 
						CHANNELS 3 Zrotation Yrotation Xrotation
						JOINT LeftHandIndex1
						{
							OFFSET 0.715260 -0.000000 -0.000000 
							CHANNELS 3 Zrotation Yrotation Xrotation
							End Site
							{
								OFFSET 0.000000 0.000000 0.000000 
							}
						}
					}
				}
			}
			JOINT RightArm
			{
				OFFSET -3.136600 1.374050 -0.404650 
				CHANNELS 3 Zrotation Yrotation Xrotation
				JOINT RightForeArm
				{
					OFFSET -5.241900 -0.000000 -0.000000 
					CHANNELS 3 Zrotation Yrotation Xrotation
					JOINT RightHand
					{
						OFFSET -3.444170 -0.000000 -0.000000 
						CHANNELS 3 Zrotation Yrotation Xrotation
						JOINT RightHandIndex1
						{
							OFFSET -0.622530 -0.000000 -0.000000 
							CHANNELS 3 Zrotation Yrotation Xrotation
							End Site
							{
								OFFSET 0.000000 0.000000 0.000000 
							}
						}
					}
				}
			}
		}
	}
}
MOTION
Frames: 18
Frame Time: 0.041667
-0.628592 18.023922 5.436978 -2.270878 2.460377 -10.150140 -15.145788 0.456316 -7.546238 3.364645 10.410103 35.092140 0.502036 0.996953 -10.564510 8.322700 -16.351600 -53.717000 15.538405 -4.383717 6.184038 -0.733854 -4.358492 16.677270 -0.699819 -0.068983 -13.554760 -0.336100 3.725500 -10.305600 11.257960 -3.929412 33.729381 -3.326793 -0.516406 -17.075734 -2.833689 -1.114009 17.107840 -0.427300 -1.016900 6.743900 -60.210549 -60.186205 49.043995 49.714977 -48.690211 -21.934796 0.644105 0.752084 0.590420 -7.125000 0.000000 0.000000 66.054361 53.782481 39.268225 -57.551611 53.658132 -26.126849 1.090285 -1.482542 -3.524273 7.125000 0.000000 0.000000 
-0.622869 18.023231 5.437965 -2.316127 2.453138 -10.143844 -15.151908 0.495210 -7.552724 3.370009 10.408721 35.105465 0.509922 0.964282 -10.563762 8.311200 -16.343400 -53.676000 15.527296 -4.372564 6.206049 -0.726742 -4.346153 16.626273 -0.701776 -0.049126 -13.534733 -0.319300 3.632300 -10.044500 11.637855 -4.051796 33.710751 -3.278951 -0.525175 -16.995013 -3.042929 -1.015670 17.102485 -0.466600 -0.991300 6.767600 -59.993383 -60.330585 48.772221 49.468483 -48.550878 -21.749176 0.649145 0.749095 0.614729 -7.125000 0.000000 0.000000 65.362014 53.998777 39.394083 -57.166832 53.495639 -25.829752 1.078029 -1.478854 -5.244244 7.125000 0.000000 0.000000 
-0.615863 18.023231 5.439840 -2.335626 2.475427 -10.125673 -15.196813 0.507848 -7.554608 3.371019 10.405642 35.111049 0.498870 1.012417 -10.582942 8.346900 -16.368600 -53.802700 15.470571 -4.445481 6.186918 -0.721491 -4.334877 16.581199 -0.699310 -0.030805 -13.472578 -0.318700 3.628700 -10.034400 11.972956 -4.200629 33.793054 -3.172652 -0.537176 -16.694753 -3.284008 -0.907508 16.934608 -0.518900 -0.963700 6.771700 -59.660644 -60.573155 48.306637 49.229120 -48.374585 -21.549350 0.660754 0.742021 0.787774 -7.125000 0.000000 0.000000 65.239380 54.018437 39.342620 -57.179133 53.493157 -25.866334 1.063012 -1.463211 -6.130379 7.125000 0.000000 0.000000 
-0.608067 18.023330 5.443195 -2.318223 2.486505 -10.104331 -15.278211 0.476644 -7.526162 3.368260 10.402025 35.106606 0.485889 1.070783 -10.611558 8.352600 -16.372600 -53.823200 15.388222 -4.497777 6.177403 -0.717420 -4.324707 16.544474 -0.693208 -0.033492 -13.415666 -0.327500 3.678300 -10.173200 12.186101 -4.284365 33.803121 -3.138159 -0.545884 -16.527029 -3.367179 -0.844313 16.826573 -0.525100 -0.947000 6.767800 -59.421196 -60.751394 48.077988 49.012271 -48.227033 -21.366640 0.669252 0.734916 0.940097 -7.125000 0.000000 0.000000 65.561319 53.990550 39.281046 -57.228227 53.530164 -25.937893 1.048812 -1.452176 -6.568385 7.125000 0.000000 0.000000 
-0.599186 18.023231 5.445958 -2.298321 2.524607 -10.082860 -15.361542 0.423209 -7.489065 3.363359 10.395279 35.087358 0.487330 1.068095 -10.626518 8.325900 -16.353800 -53.728300 15.313082 -4.512561 6.183765 -0.714485 -4.319868 16.522829 -0.693670 -0.045503 -13.441668 -0.334800 3.718400 -10.285800 12.373106 -4.346740 33.725230 -3.163362 -0.563562 -16.522525 -3.389203 -0.795546 16.858911 -0.515000 -0.932000 6.781700 -59.359168 -60.861599 48.063697 48.784086 -48.099809 -21.185024 0.673927 0.729952 1.041112 -7.125000 0.000000 0.000000 65.873504 54.067737 39.239834 -57.053664 53.488261 -25.823314 1.043059 -1.453804 -7.098084 7.125000 0.000000 0.000000 
-0.590403 18.023034 5.449116 -2.270968 2.604255 -10.078902 -15.448924 0.408557 -7.450349 3.360065 10.386133 35.066701 0.497593 1.021896 -10.612308 8.305300 -16.339300 -53.655100 15.215759 -4.570305 6.193723 -0.712912 -4.318108 16.508582 -0.692023 -0.060208 -13.450908 -0.344600 3.771800 -10.435500 12.584899 -4.434158 33.652845 -3.156368 -0.585776 -16.495070 -3.567591 -0.734006 16.823841 -0.554600 -0.918100 6.775000 -59.332264 -60.954138 48.006958 48.593029 -47.989685 -21.033482 0.676923 0.727046 1.179548 -7.125000 0.000000 0.000000 66.136977 53.966657 39.155491 -57.040815 53.505247 -25.822723 1.046135 -1.453084 -7.682435 7.125000 0.000000 0.000000 
-0.581423 18.022343 5.453951 -2.162032 2.673320 -10.097586 -15.625713 0.418686 -7.377124 3.359140 10.381485 35.064526 0.493538 1.038615 -10.622116 8.306300 -16.340000 -53.658600 15.023145 -4.643510 6.231643 -0.712246 -4.314542 16.487832 -0.694050 -0.033876 -13.421641 -0.340000 3.746800 -10.365300 12.790460 -4.486197 33.494216 -3.157638 -0.583623 -16.487247 -3.845962 -0.688597 16.741497 -0.627700 -0.916000 6.741400 -59.252780 -60.998343 48.011002 48.502179 -47.930216 -20.954442 0.677738 0.725572 1.240777 -7.125000 0.000000 0.000000 68.160796 52.562408 38.567786 -58.229472 54.061907 -26.772296 1.087132 -1.442551 -6.391310 7.125000 0.000000 0.000000 
-0.573035 18.022244 5.455530 -2.147105 2.701516 -10.115225 -15.689585 0.432968 -7.347926 3.361254 10.381210 35.074334 0.486727 1.068698 -10.639571 8.324800 -16.353000 -53.724400 14.960027 -4.645696 6.268534 -0.709709 -4.311287 16.468938 -0.702863 -0.017344 -13.477600 -0.325900 3.669400 -10.148400 12.958415 -4.489107 33.373820 -3.192972 -0.574469 -16.713484 -4.033886 -0.667895 16.825845 -0.668000 -0.920600 6.743700 -59.212631 -61.001936 48.135478 48.436212 -47.921598 -20.916091 0.673097 0.721062 1.227561 -7.125000 0.000000 0.000000 66.972731 52.320777 38.632448 -57.768385 53.898589 -26.402124 1.075844 -1.444212 -8.221008 7.125000 0.000000 0.000000 
-0.566128 18.023922 5.454346 -2.322787 2.694098 -10.065026 -15.542303 0.451976 -7.437379 3.365413 10.390870 35.091869 0.495298 1.032634 -10.623968 8.342000 -16.365100 -53.785500 15.125298 -4.611344 6.239594 -0.703676 -4.307449 16.448730 -0.694162 -0.103296 -13.548629 -0.338000 3.736200 -10.335700 13.296670 -4.464409 33.008713 -3.466946 -0.586057 -17.123972 -4.040528 -0.682299 17.129003 -0.654700 -0.932300 6.781400 -59.413414 -60.904032 48.512202 48.391665 -47.955215 -20.903493 0.669298 0.715754 1.236387 -7.125000 0.000000 0.000000 66.893053 51.751495 38.566619 -57.738330 53.953833 -26.394886 1.070856 -1.442717 -8.942353 7.125000 0.000000 0.000000 
-0.559023 18.025402 5.455826 -2.416684 2.725471 -9.991154 -15.486456 0.479585 -7.549764 3.375461 10.404392 35.131635 0.509353 0.963980 -10.576858 8.359200 -16.377200 -53.846500 15.186573 -4.622517 6.190175 -0.695486 -4.295222 16.403106 -0.678368 -0.195525 -13.561212 -0.351300 3.808100 -10.537400 13.611265 -4.487236 32.771377 -3.613447 -0.595452 -17.260024 -4.044316 -0.696822 17.220605 -0.640300 -0.945000 6.785200 -59.498828 -60.866715 48.675821 48.397512 -47.977413 -20.914944 0.668159 0.713502 1.262506 -7.125000 0.000000 0.000000 67.139254 51.418485 38.433957 -57.747892 54.000320 -26.417620 1.072531 -1.441991 -9.226798 7.125000 0.000000 0.000000 
-0.550832 18.025994 5.458589 -2.434735 2.778254 -9.932473 -15.512562 0.491879 -7.629543 3.384818 10.417234 35.173387 0.513271 0.937275 -10.539014 8.397500 -16.404000 -53.982200 15.166061 -4.627418 6.182912 -0.686228 -4.276309 16.340639 -0.673135 -0.243071 -13.596345 -0.347100 3.785600 -10.474300 13.810438 -4.530370 32.645369 -3.672334 -0.608937 -17.279409 -4.086353 -0.717793 17.244514 -0.641200 -0.963600 6.788100 -59.495177 -60.837661 48.687616 48.394734 -47.984096 -20.919064 0.668600 0.713349 1.323278 -7.125000 0.000000 0.000000 67.358643 51.224148 38.334122 -57.753264 54.027418 -26.429255 1.077779 -1.440729 -9.585950 7.125000 0.000000 0.000000 
-0.542149 18.026981 5.461352 -2.518091 2.787347 -9.891483 -15.471991 0.482097 -7.674300 3.387314 10.424221 35.190134 0.508850 0.957313 -10.543365 8.431600 -16.427700 -54.102600 15.214749 -4.630467 6.192255 -0.677860 -4.257680 16.283281 -0.663938 -0.289989 -13.591531 -0.353000 3.817300 -10.563300 14.017420 -4.575141 32.538554 -3.772473 -0.631359 -17.275738 -4.080877 -0.739211 17.263028 -0.631300 -0.979000 6.793100 -59.421108 -60.792326 48.638014 48.372021 -47.981297 -20.911637 0.669490 0.716197 1.267415 -7.125000 0.000000 0.000000 67.601267 51.024806 38.235850 -57.786132 54.061907 -26.461813 1.083261 -1.439217 -9.804418 7.125000 0.000000 0.000000 
-0.532971 18.027770 5.465200 -2.521597 2.767638 -9.890540 -15.503353 0.495662 -7.661778 3.386239 10.425355 35.190901 0.505264 0.980056 -10.571499 8.441700 -16.434700 -54.138500 15.162312 -4.697861 6.213248 -0.672212 -4.234228 16.220265 -0.656355 -0.277495 -13.493527 -0.349800 3.800200 -10.515100 14.052911 -4.580259 32.530334 -3.841392 -0.641363 -17.233537 -3.973251 -0.780268 17.153012 -0.597900 -0.993400 6.760200 -59.238866 -60.746864 48.539872 48.462027 -48.025193 -20.982210 0.667816 0.721933 1.036363 -7.125000 0.000000 0.000000 68.125446 50.835990 38.013573 -57.907163 54.130895 -26.576355 1.084383 -1.436901 -9.464790 7.125000 0.000000 0.000000 
-0.523893 18.027376 5.469246 -2.419797 2.761894 -9.910109 -15.635214 0.536948 -7.619285 3.383401 10.422578 35.183334 0.503641 0.999116 -10.614862 8.460600 -16.447800 -54.205400 15.004060 -4.752806 6.257768 -0.667120 -4.209769 16.153938 -0.662052 -0.218551 -13.443287 -0.327000 3.675100 -10.164400 13.977304 -4.550242 32.555488 -3.847563 -0.628496 -17.169989 -3.930210 -0.836893 17.072458 -0.591900 -1.017400 6.739200 -59.184242 -60.730819 48.467801 48.625946 -48.096671 -21.101900 0.665840 0.727986 0.800099 -7.125000 0.000000 0.000000 69.304660 50.508975 37.579203 -58.472546 54.367025 -27.047618 1.091887 -1.427480 -8.268006 7.125000 0.000000 0.000000 
-0.516689 18.027178 5.473194 -2.356368 2.753719 -9.907073 -15.718003 0.606489 -7.612564 3.379714 10.416192 35.167195 0.498386 1.023862 -10.630671 8.486100 -16.465400 -54.295400 14.911938 -4.734999 6.289957 -0.661246 -4.193601 16.103887 -0.663131 -0.215037 -13.448857 -0.315600 3.611400 -9.986000 13.978207 -4.524187 32.555284 -3.818915 -0.606372 -17.163450 -4.016422 -0.843613 17.178236 -0.617100 -1.028400 6.775700 -59.359469 -60.720272 48.452354 48.710442 -48.142622 -21.170957 0.658838 0.737138 0.475339 -7.125000 0.000000 0.000000 69.211193 50.411191 37.453182 -58.307586 54.317582 -26.929042 1.087790 -1.433330 -8.141006 7.125000 0.000000 0.000000 
-0.510670 18.027474 5.477042 -2.344951 2.736146 -9.883970 -15.739843 0.654248 -7.632271 3.377215 10.412313 35.154604 0.495602 1.028500 -10.610533 8.478300 -16.460100 -54.267900 14.885884 -4.714600 6.295588 -0.657023 -4.183208 16.073256 -0.657351 -0.242674 -13.443350 -0.314900 3.607100 -9.973800 13.986194 -4.522327 32.566377 -3.828003 -0.604274 -17.116514 -4.029090 -0.806040 17.151802 -0.617400 -1.012100 6.776300 -59.494149 -60.680853 48.369906 48.749541 -48.164912 -21.201819 0.646781 0.753133 -0.126515 -7.125000 0.000000 0.000000 69.181379 50.295616 37.368147 -58.221329 54.289360 -26.864560 1.088416 -1.440544 -7.649551 7.125000 0.000000 0.000000 
-0.504551 18.027474 5.480496 -2.341745 2.734690 -9.871039 -15.763106 0.636988 -7.628674 3.378117 10.412562 35.156580 0.506639 0.990220 -10.625654 8.457000 -16.445300 -54.192700 14.869009 -4.692451 6.307197 -0.655805 -4.180458 16.066020 -0.660858 -0.243854 -13.482276 -0.313300 3.598500 -9.949700 13.986473 -4.535919 32.621275 -3.836033 -0.608095 -17.013108 -3.935691 -0.778310 16.966739 -0.584900 -0.992800 6.735200 -59.676866 -60.667592 48.274325 48.818643 -48.189446 -21.247694 0.633987 0.771151 -0.859367 -7.125000 0.000000 0.000000 69.146761 50.179420 37.253707 -58.196059 54.273713 -26.846225 1.088116 -1.447349 -6.967838 7.125000 0.000000 0.000000 
-0.499321 18.026882 5.484048 -2.342169 2.718787 -9.862727 -15.779829 0.631860 -7.630055 3.383557 10.415378 35.174355 0.520928 0.940110 -10.646574 8.450300 -16.440700 -54.169000 14.863838 -4.635990 6.308179 -0.656875 -4.186623 16.082292 -0.664874 -0.242913 -13.521552 -0.316200 3.614900 -9.995700 13.957612 -4.519137 32.695807 -3.805928 -0.594893 -17.002160 -3.857893 -0.779485 16.905967 -0.555000 -0.988900 6.721000 -60.066337 -60.658670 48.320337 48.888520 -48.230733 -21.304088 0.621225 0.784539 -1.461767 -7.125000 0.000000 0.000000 67.479714 50.469125 37.474502 -57.376902 53.935443 -26.201742 1.056471 -1.458633 -8.030232 7.125000 0.000000 0.000000 
